<svg xmlns="http://www.w3.org/2000/svg" width="11.375" height="14" viewBox="0 0 11.375 14">
  <path id="Shape" d="M7.153,14a.8.8,0,0,1-.775-.812V11.471a.82.82,0,0,1,.031-.226H4.968A.857.857,0,0,1,5,11.471v1.716a.777.777,0,1,1-1.552,0V11.471a.855.855,0,0,1,.031-.226h-.59a.84.84,0,0,1-.819-.859V4.426H9.307v5.961a.84.84,0,0,1-.818.859H7.9a.857.857,0,0,1,.031.226v1.716A.8.8,0,0,1,7.153,14ZM10.6,9.529a.8.8,0,0,1-.776-.812V5.238a.777.777,0,1,1,1.552,0V8.717A.8.8,0,0,1,10.6,9.529Zm-9.823,0A.8.8,0,0,1,0,8.717V5.238a.8.8,0,0,1,.777-.812.8.8,0,0,1,.775.812V8.717A.8.8,0,0,1,.777,9.529Zm8.53-5.644H2.069a3.082,3.082,0,0,1,1.84-2.712L3.762.943,3.618.718,3.3.211A.14.14,0,0,1,3.333.023.125.125,0,0,1,3.4,0a.129.129,0,0,1,.108.06L3.859.6,4,.832l.147.232a4.141,4.141,0,0,1,3.075,0L7.372.832,7.519.6,7.864.061A.127.127,0,0,1,7.972,0a.124.124,0,0,1,.072.023.14.14,0,0,1,.036.188L7.757.718,7.613.943l-.146.229A3.083,3.083,0,0,1,9.307,3.884Zm-2.069-1.9a.406.406,0,1,0,.388.405A.4.4,0,0,0,7.238,1.988Zm-3.1,0a.407.407,0,1,0,.387.405A.4.4,0,0,0,4.137,1.988Z" transform="translate(0 0)" fill="#fff"/>
</svg>
