<svg xmlns="http://www.w3.org/2000/svg" width="11.455" height="14" viewBox="0 0 11.455 14">
  <path id="Shape" d="M3.684,14H3.665c-.97-.009-1.7-.976-2.3-1.92A9.049,9.049,0,0,1,.032,8.209,5.188,5.188,0,0,1,.6,5.045,3.454,3.454,0,0,1,3.4,3.279,3.828,3.828,0,0,1,4.8,3.6a3.252,3.252,0,0,0,1.154.278,2.721,2.721,0,0,0,1.032-.259A3.8,3.8,0,0,1,8.5,3.277,3.349,3.349,0,0,1,11.067,4.7a3.01,3.01,0,0,0-1.506,2.9,3.066,3.066,0,0,0,1.894,2.679,10.161,10.161,0,0,1-.865,1.7c-.624,1-1.39,2.02-2.338,2.028H8.232a1.985,1.985,0,0,1-.933-.26L7.226,13.7a2.591,2.591,0,0,0-1.233-.294H5.969a2.86,2.86,0,0,0-1.333.332A2.079,2.079,0,0,1,3.684,14ZM5.594,3.37H5.536A2.911,2.911,0,0,1,6.2,1.151,3.111,3.111,0,0,1,8.242,0a3.214,3.214,0,0,1-.649,2.273A2.625,2.625,0,0,1,5.594,3.37Z" transform="translate(0)" fill="#fff"/>
</svg>
